<svg width="36" height="35" viewBox="0 0 36 35" fill="none" xmlns="http://www.w3.org/2000/svg">
<path d="M13.9697 32.8418C14.773 32.8418 15.4242 32.1906 15.4242 31.3873C15.4242 30.584 14.773 29.9327 13.9697 29.9327C13.1664 29.9327 12.5151 30.584 12.5151 31.3873C12.5151 32.1906 13.1664 32.8418 13.9697 32.8418Z" stroke="#219EBC" stroke-width="3" stroke-linecap="round" stroke-linejoin="round"/>
<path d="M29.9697 32.8418C30.773 32.8418 31.4242 32.1906 31.4242 31.3873C31.4242 30.584 30.773 29.9327 29.9697 29.9327C29.1664 29.9327 28.5151 30.584 28.5151 31.3873C28.5151 32.1906 29.1664 32.8418 29.9697 32.8418Z" stroke="#219EBC" stroke-width="3" stroke-linecap="round" stroke-linejoin="round"/>
<path d="M2.33325 2.29639H8.15143L12.0496 21.7728C12.1826 22.4424 12.5469 23.044 13.0788 23.4721C13.6106 23.9002 14.2761 24.1277 14.9587 24.1146H29.0969C29.7795 24.1277 30.445 23.9002 30.9768 23.4721C31.5087 23.044 31.873 22.4424 32.006 21.7728L34.3333 9.56911H9.60598" stroke="#219EBC" stroke-width="3" stroke-linecap="round" stroke-linejoin="round"/>
</svg>
