<svg width="25" height="25" viewBox="0 0 112 112" fill="none" xmlns="http://www.w3.org/2000/svg">
<path d="M48.3046 0.138013C21.668 0.138013 0 21.8061 0 48.4426C0 75.0791 21.668 96.7471 48.3046 96.7471C56.4473 96.7471 64.4521 94.815 71.2147 91.0886C71.7564 91.7405 72.357 92.3411 73.0089 92.8828L86.8102 106.684C88.0846 108.118 89.6386 109.276 91.3768 110.088C93.1151 110.9 95.0009 111.347 96.9185 111.404C98.836 111.46 100.745 111.124 102.528 110.416C104.311 109.708 105.93 108.643 107.287 107.287C108.643 105.93 109.708 104.311 110.416 102.528C111.124 100.745 111.46 98.836 111.404 96.9185C111.347 95.0009 110.9 93.1151 110.088 91.3768C109.276 89.6386 108.118 88.0846 106.684 86.8102L92.8828 73.0089C92.2105 72.3364 91.4705 71.7351 90.6746 71.2147C94.4009 64.4521 96.7471 56.5853 96.7471 48.3046C96.7471 21.668 75.0791 0 48.4426 0L48.3046 0.138013ZM48.3046 13.9393C67.4884 13.9393 82.8078 29.2588 82.8078 48.4426C82.8078 57.5514 79.4955 65.9702 73.699 72.1808C73.561 72.3188 73.4229 72.4568 73.2849 72.5949C72.633 73.1366 72.0324 73.7372 71.4908 74.389C65.4182 79.9096 57.1374 83.0839 48.1666 83.0839C28.9827 83.0839 13.6633 67.7644 13.6633 48.5806C13.6633 29.3968 28.9827 14.0773 48.1666 14.0773L48.3046 13.9393Z" fill="#023047"/>
</svg>
