<svg width="691" height="548" viewBox="0 0 491 348" fill="none" xmlns="http://www.w3.org/2000/svg">
<path fill-rule="evenodd" clip-rule="evenodd" d="M226.028 0.484399C226.033 0.861099 228.792 8.94641 232.159 18.4525C252.032 74.5587 257.791 90.8897 258.299 92.5773C258.851 94.4147 258.607 94.3881 248.826 91.5438C243.304 89.9378 235.438 88.134 231.347 87.5357C222.638 86.2621 206.626 86.8559 194.111 88.9158C185.286 90.3685 159.339 96.542 159.862 97.0649C160.028 97.2316 164.911 96.9497 170.712 96.4383C188.69 94.8535 211.696 97.1979 227.81 102.257C243.271 107.111 263.875 119.828 270.634 128.689C273.217 132.077 285.406 164.505 285.406 167.992C285.406 169.671 284.618 170.481 281.869 171.636C279.924 172.453 278.329 173.42 278.324 173.786C278.319 174.152 290.081 174.451 304.462 174.451C328.743 174.451 334.349 173.927 328.615 172.195C325.849 171.359 321.89 167.513 319.984 163.808C318.506 160.937 303.897 121.783 271.864 34.8501L259.127 0.282313L242.573 0.0412227C233.469 -0.0917301 226.023 0.107699 226.028 0.484399ZM219.815 10.1536C219.084 10.3876 215.893 11.4051 212.725 12.4156C199.239 16.7153 184.527 26.0149 173.593 37.1519C148.541 62.6674 139.198 98.6302 148.515 133.678C150.992 142.992 153.375 148.661 158.856 158.275C162.508 164.682 163.329 165.364 165.638 163.901C166.614 163.283 166.288 162.3 164.006 158.985C159.19 151.984 153.592 138.656 151.144 128.36C149.086 119.706 148.453 104.149 149.764 94.5087C151.757 79.8661 158.624 62.5371 167.085 50.8044C171.373 44.8561 182.577 33.6553 189.065 28.83C194.708 24.6331 207.843 18.2682 216.986 15.3007C222.508 13.5085 224.227 12.5876 223.855 11.6205C223.583 10.9106 223.361 10.1634 223.361 9.95951C223.361 9.49595 221.568 9.59433 219.815 10.1536ZM268.627 10.2813C268.885 12.9199 270.611 14.3523 275.685 16.1374C283.372 18.8425 295.409 24.9389 300.888 28.9026C307.039 33.3521 316.766 42.7404 321.282 48.5885C339.589 72.2905 345.842 107.57 336.706 135.611C334.2 143.302 330.106 152.512 327.054 157.324C324.92 160.69 324.678 161.62 325.564 163.053C326.603 164.735 326.646 164.734 328.09 162.963C334.303 155.345 342.012 135.469 343.984 121.985C345.616 110.814 344.562 91.6848 341.751 81.5183C334.083 53.7781 315.538 30.85 290.28 17.8826C284.293 14.8087 280.723 13.4411 269.673 9.99053C269.064 9.79997 268.593 9.93115 268.627 10.2813ZM190.919 148.4C184.873 158.737 170.164 170.889 162.033 172.263C160.176 172.577 158.657 173.197 158.657 173.642C158.657 174.11 169.467 174.451 184.361 174.451C199.256 174.451 210.066 174.11 210.066 173.642C210.066 173.197 208.537 172.575 206.667 172.26C202.133 171.494 198.019 168.884 195.931 165.451C193.793 161.936 192.858 153.247 193.991 147.418C194.464 144.98 194.742 142.878 194.609 142.745C194.476 142.612 192.815 145.157 190.919 148.4ZM178.224 182.068C180.951 184.986 194.668 194.199 201.139 197.459C207.564 200.696 218.497 204.115 228.347 205.968C237.847 207.755 256.474 207.302 266.792 205.033C280.831 201.946 296.52 194.288 308.325 184.761L313.96 180.212L311.188 179.933C308.993 179.712 307.173 180.59 302.45 184.153C294.663 190.024 280.762 196.865 270.873 199.691C257.117 203.623 235.789 204.004 222.213 200.561C209.886 197.434 196.598 191.131 187.274 183.988C183.338 180.973 180.954 179.769 178.921 179.769H176.075L178.224 182.068ZM73.0913 250.314C68.2553 252.031 63.2962 256.274 60.911 260.734C59.0984 264.123 58.9424 265.612 58.9424 279.483C58.9424 289.535 59.3236 295.625 60.0867 297.777C61.613 302.081 66.2061 306.664 71.4772 309.144C77.2288 311.85 88.3481 312.586 93.9383 310.631C97.84 309.267 97.9544 309.281 100.192 311.425C101.445 312.625 102.867 313.608 103.35 313.608C103.834 313.608 105.757 312.044 107.623 310.133L111.016 306.659L109.183 304.085C107.492 301.71 107.445 301.242 108.59 298.031C110.108 293.77 110.37 268.773 108.95 263.658C107.553 258.629 101.81 252.864 96.0531 250.71C90.2777 248.549 78.6292 248.348 73.0913 250.314ZM151.566 270.688V292.472L148.975 295.063C145.506 298.532 139.683 298.723 136.185 295.48L133.839 293.306V271.549V249.791H125.862H117.885V271.114C117.885 296.68 118.328 299.067 124.15 304.889C135.775 316.514 159.2 312.943 165.627 298.567C166.751 296.052 167.089 290.984 167.349 272.748L167.672 250.059L162.148 249.481C159.11 249.164 155.487 248.904 154.095 248.904H151.566V270.688ZM194.628 249.708L190.27 250.234L186.964 259.984C185.146 265.346 180.44 279.007 176.507 290.341L169.357 310.949H177.66H185.961L187.846 304.744L189.731 298.54H197.951H206.171L208.17 304.744L210.167 310.949H218.489H226.811L225.18 306.296C212.865 271.158 205.281 250.914 204.093 250.012C202.578 248.86 201.854 248.837 194.628 249.708ZM452.869 250.52C446.747 252.992 443.393 255.877 440.954 260.772C438.874 264.947 438.744 266.04 438.75 279.436C438.755 295.728 439.331 298.608 443.578 303.568C448.42 309.226 454.275 311.4 464.449 311.318C474.087 311.24 477.543 310.066 483.217 304.946C488.537 300.146 489.473 297.217 489.942 283.915C490.629 264.39 488.173 257.473 478.653 252.122C474.324 249.689 472.889 249.367 465.357 249.14C458.77 248.942 456.026 249.245 452.869 250.52ZM14.1878 270.841C10.1514 282.42 5.33141 296.18 3.47716 301.421L0.106358 310.949H8.42212H16.7388L18.7366 304.744L20.7353 298.54H28.9297H37.1249L39.1227 304.744L41.1214 310.949H49.462C56.1726 310.949 57.7113 310.71 57.3355 309.731C57.0784 309.061 52.1512 295.3 46.3864 279.152L35.9044 249.791H28.716H21.5268L14.1878 270.841ZM247.292 280.37V310.949H267.678H288.065V303.415V295.881H275.212H262.36V272.836V249.791H254.826H247.292V280.37ZM294.269 280.37V310.949H301.803H309.337V280.37V249.791H301.803H294.269V280.37ZM319.087 280.336V310.949H327.202H335.319L334.82 296.102C334.545 287.937 334.49 281.655 334.697 282.142C334.905 282.63 336.763 287.217 338.825 292.335L342.575 301.642H347.865H353.156L357.354 291.006L361.553 280.37L361.011 295.659L360.469 310.949H368.584H376.7V280.336V249.724L368.645 249.978L360.59 250.234L354.458 264.347C351.085 272.11 348.182 278.603 348.008 278.779C347.832 278.953 344.862 272.603 341.408 264.665L335.125 250.234L327.107 249.978L319.087 249.724V280.336ZM386.45 280.301V310.949H393.984H401.518V302.191V293.434L409.716 293.048C418.716 292.626 423.138 290.967 427.342 286.434C431.652 281.787 432.947 278.234 432.965 270.994C432.981 265.048 432.675 263.778 430.303 259.942C428.829 257.558 425.904 254.398 423.803 252.92L419.984 250.234L403.217 249.943L386.45 249.652V280.301ZM91.1126 264.522C94.1431 266.482 94.8397 269.319 94.8397 279.695V289.099L92.7887 287.172C91.6604 286.112 90.4319 285.245 90.0579 285.245C89.6847 285.245 87.6629 286.738 85.5649 288.563L81.7501 291.881L83.9553 294.502C86.0179 296.953 86.0542 297.16 84.5173 297.702C82.1622 298.534 77.8155 297.107 76.0047 294.909C74.6876 293.31 74.4536 291.114 74.4536 280.37C74.4536 265.887 75.0847 264.257 81.1562 263.058C85.2512 262.251 88.2923 262.698 91.1126 264.522ZM468.53 263.073C469.068 263.081 470.564 264.064 471.853 265.259C474.182 267.417 474.199 267.527 474.199 280.263C474.199 293.026 474.186 293.103 471.893 294.907C468.62 297.482 463.905 298.162 459.638 296.678C454.333 294.833 453.727 292.957 454.011 279.284C454.233 268.687 454.437 267.381 456.143 265.677C458.211 263.612 462.991 262.137 465.778 262.702C466.753 262.9 467.991 263.067 468.53 263.073ZM415.443 265.966C417.95 268.705 418.576 271.262 417.46 274.197C415.996 278.046 414.062 278.981 407.501 279.012L401.518 279.04V271.506V263.972H407.568C412.71 263.972 413.891 264.272 415.443 265.966ZM30.9479 274.313C33.6442 284.878 33.5768 285.245 28.9545 285.245C26.8414 285.245 24.8976 285.029 24.6344 284.766C24.3711 284.503 25.1556 280.301 26.377 275.429C27.5984 270.557 28.7107 266.684 28.849 266.823C28.9873 266.961 29.9312 270.332 30.9479 274.313ZM202.066 283.694C202.085 284.967 201.295 285.245 197.657 285.245C195.219 285.245 193.225 285.003 193.225 284.708C193.225 284.151 195.279 275.905 196.954 269.733L197.916 266.188L199.981 274.165C201.116 278.553 202.055 282.841 202.066 283.694ZM330.342 326.581C329.089 327.834 329.799 328.391 332.791 328.504C334.478 328.568 336.097 328.234 336.389 327.761C336.68 327.29 336.13 326.903 335.166 326.903C334.202 326.903 332.862 326.691 332.187 326.433C331.512 326.174 330.682 326.24 330.342 326.581ZM425.006 327.79C424.705 328.277 425.28 328.676 426.283 328.676C427.287 328.676 428.108 328.277 428.108 327.79C428.108 327.302 427.534 326.903 426.831 326.903C426.128 326.903 425.307 327.302 425.006 327.79ZM33.6814 337.539C33.6814 344.039 33.9278 345.517 35.0109 345.517C36.094 345.517 36.3405 344.039 36.3405 337.539C36.3405 331.04 36.094 329.562 35.0109 329.562C33.9278 329.562 33.6814 331.04 33.6814 337.539ZM77.5656 330.67C76.634 333.402 74.4536 342.808 74.4536 344.093C74.4536 346.142 77.1916 345.851 77.742 343.744C78.0088 342.726 78.951 341.971 79.9579 341.971C80.9648 341.971 81.9078 342.726 82.1738 343.744C82.4308 344.725 83.3827 345.517 84.3072 345.517C86.3626 345.517 86.3777 345.969 84.0253 337C82.2837 330.359 81.8538 329.562 80.0093 329.562C78.873 329.562 77.773 330.061 77.5656 330.67ZM91.6684 330.754C91.4166 331.409 91.3298 334.894 91.4743 338.499C91.6879 343.825 92.0193 345.108 93.2381 345.341C94.4506 345.572 94.791 344.81 95.0126 341.361L95.2864 337.096L97.4553 341.306C98.8265 343.967 100.212 345.517 101.221 345.517C102.64 345.517 102.817 344.631 102.817 337.539C102.817 331.167 102.559 329.562 101.533 329.562C100.611 329.562 100.176 330.868 99.9823 334.216L99.7147 338.869L97.2621 334.216C94.8876 329.71 92.6097 328.3 91.6684 330.754ZM128.047 331.37C125.859 333.787 125.9 341.337 128.113 343.783C129.973 345.837 134.062 346.054 135.919 344.196C137.676 342.44 138.549 338.166 137.826 334.872C137.503 333.404 136.645 331.609 135.919 330.883C134.036 328.999 129.963 329.251 128.047 331.37ZM154.203 333.329C153.665 335.401 152.854 338.492 152.401 340.199C151.947 341.905 151.574 343.8 151.572 344.409C151.563 346.227 154.353 345.662 154.855 343.744C155.155 342.597 156.064 341.971 157.431 341.971C158.952 341.971 159.543 342.467 159.543 343.744C159.543 344.925 160.135 345.517 161.316 345.517C163.475 345.517 163.484 346.141 161.207 337.064C159.518 330.327 159.114 329.562 157.253 329.562C155.558 329.562 155.002 330.25 154.203 333.329ZM177.69 331.362C175.312 333.989 176.78 337.462 180.816 338.759C184.305 339.879 184.976 342.265 181.924 342.698C180.583 342.888 179.93 342.525 179.93 341.59C179.93 340.79 179.177 340.199 178.157 340.199C177.182 340.199 176.384 340.735 176.384 341.391C176.384 343.288 179.414 345.517 181.994 345.517C184.805 345.517 188.257 342.39 187.532 340.501C187.251 339.767 187.02 338.817 187.02 338.389C187.02 337.961 185.425 337.133 183.475 336.549C179.828 335.456 178.811 333.481 181.388 332.493C182.251 332.161 183.284 332.534 183.923 333.407C185.344 335.352 187.02 335.285 187.02 333.285C187.02 329.392 180.659 328.081 177.69 331.362ZM212.702 333.329C212.164 335.401 211.353 338.492 210.9 340.199C210.447 341.905 210.074 343.8 210.071 344.409C210.062 346.227 212.852 345.662 213.354 343.744C213.646 342.629 214.563 341.971 215.827 341.971C217.091 341.971 218.008 342.629 218.3 343.744C218.554 344.719 219.399 345.517 220.175 345.517C221.927 345.517 221.956 346.032 219.706 337.064C218.017 330.327 217.614 329.562 215.752 329.562C214.058 329.562 213.501 330.25 212.702 333.329ZM252.61 337.539C252.61 344.925 252.742 345.517 254.383 345.517C256.025 345.517 256.156 344.925 256.156 337.539C256.156 330.153 256.025 329.562 254.383 329.562C252.742 329.562 252.61 330.153 252.61 337.539ZM312.577 331.183C310.842 333.101 310.656 336.254 312.218 337.266C312.827 337.66 314.522 338.381 315.985 338.869C317.447 339.356 318.644 340.348 318.644 341.072C318.644 342.919 315.438 343.339 314.476 341.619C313.511 339.895 311.11 339.732 311.11 341.391C311.11 343.171 314.079 345.517 316.334 345.517C319.718 345.517 321.746 343.885 321.746 341.162C321.746 338.321 320.632 337.161 317.093 336.315C315.752 335.995 314.655 335.166 314.655 334.473C314.655 332.446 316.412 331.932 318.105 333.464C320.047 335.222 321.746 335.292 321.746 333.614C321.746 329.891 315.293 328.18 312.577 331.183ZM329.331 336.389C328.439 340.191 327.521 343.8 327.292 344.409C327.04 345.076 327.616 345.517 328.742 345.517C330.018 345.517 330.609 344.956 330.609 343.744C330.609 342.457 331.201 341.971 332.766 341.971C334.143 341.971 335.125 342.611 335.484 343.744C336.177 345.926 338.595 346.1 338.566 343.966C338.556 343.113 337.834 339.622 336.964 336.21C335.575 330.762 335.111 329.974 333.168 329.741C331.087 329.494 330.855 329.896 329.331 336.389ZM346.256 330.883C344.5 332.639 343.626 336.913 344.35 340.207C345.125 343.74 347.029 345.517 350.035 345.517C353.794 345.517 355.427 343.053 355.427 337.385C355.427 333.774 355.004 332.112 353.806 331.029C351.791 329.205 348.008 329.132 346.256 330.883ZM372.745 330.608C371.803 333.352 369.609 342.787 369.609 344.093C369.609 346.129 372.041 345.855 372.711 343.744C373.03 342.74 374.052 341.971 375.07 341.971C376.12 341.971 377.058 342.707 377.329 343.744C377.588 344.733 378.538 345.517 379.479 345.517C381.323 345.517 381.352 345.837 378.543 335.324C377.393 331.017 376.744 329.951 375.135 329.722C374.041 329.566 372.966 329.965 372.745 330.608ZM387.917 331.183C385.793 333.53 385.895 342.081 388.071 344.05C388.963 344.856 390.279 345.517 390.996 345.517C391.713 345.517 392.772 345.989 393.348 346.565C394.559 347.776 394.452 347.881 396.448 343.492C398.81 338.297 398.143 332.367 394.959 330.24C393.164 329.042 389.399 329.545 387.917 331.183ZM422.398 336.389C421.506 340.191 420.588 343.8 420.359 344.409C420.113 345.064 420.663 345.517 421.705 345.517C422.725 345.517 423.666 344.768 423.934 343.744C424.205 342.707 425.143 341.971 426.193 341.971C427.21 341.971 428.232 342.74 428.551 343.744C429.244 345.926 431.662 346.1 431.633 343.966C431.623 343.113 430.901 339.622 430.031 336.21C428.642 330.762 428.178 329.974 426.235 329.741C424.154 329.494 423.922 329.896 422.398 336.389ZM452.04 337.539C452.04 344.925 452.171 345.517 453.812 345.517C455.454 345.517 455.585 344.925 455.585 337.539C455.585 330.153 455.454 329.562 453.812 329.562C452.171 329.562 452.04 330.153 452.04 337.539ZM463.257 331.183C461.133 333.53 461.235 342.081 463.411 344.05C466.463 346.812 472.426 345.102 472.426 341.465C472.426 339.687 470.034 339.885 468.972 341.75C467.507 344.324 464.941 342.001 464.626 337.816C464.266 333.021 466.541 330.885 468.903 333.801C470.862 336.221 472.426 336.335 472.426 334.057C472.426 329.939 466.159 327.975 463.257 331.183ZM480.011 336.389C479.119 340.191 478.201 343.8 477.972 344.409C477.72 345.076 478.296 345.517 479.422 345.517C480.698 345.517 481.289 344.956 481.289 343.744C481.289 342.457 481.881 341.971 483.446 341.971C484.823 341.971 485.805 342.611 486.164 343.744C486.857 345.926 489.275 346.1 489.246 343.966C489.236 343.113 488.514 339.622 487.644 336.21C486.255 330.762 485.791 329.974 483.847 329.741C481.767 329.494 481.535 329.896 480.011 336.389ZM0 337.937V345.517H3.44703C8.31577 345.517 11.1237 343.095 10.2126 339.684C9.8332 338.26 9.47333 335.7 9.41483 333.994C9.3067 330.893 9.30582 330.892 4.65335 330.624L0 330.356V337.937ZM16.8407 337.983C16.8407 344.089 17.0924 345.517 18.1702 345.517C19.0504 345.517 19.4998 344.636 19.4998 342.91C19.4998 339.038 21.1271 338.748 22.6321 342.351C23.3598 344.092 24.5484 345.517 25.2726 345.517C26.7989 345.517 26.954 344.307 25.7246 342.008C25.1148 340.869 25.2504 339.605 26.1828 337.734C27.1649 335.765 27.2802 334.479 26.6278 332.763C25.8407 330.692 25.2805 330.449 21.2946 330.449H16.8407V337.983ZM43.1149 337.27C42.7975 341.022 42.8844 344.438 43.3072 344.861C44.4408 345.994 51.6531 345.258 52.0785 343.966C52.324 343.217 51.4111 342.858 49.2661 342.858H46.0903V336.653C46.0903 332.028 45.7854 330.449 44.8911 330.449C44.0367 330.449 43.5252 332.41 43.1149 337.27ZM57.6129 337.983C57.6129 343.948 57.8788 345.517 58.8893 345.517C59.7233 345.517 60.2605 344.367 60.4404 342.193C60.6788 339.311 61.0103 338.869 62.931 338.869C64.8518 338.869 65.1833 339.311 65.4217 342.193C65.6016 344.367 66.1387 345.517 66.9728 345.517C67.9832 345.517 68.2491 343.948 68.2491 337.983C68.2491 331.877 67.9974 330.449 66.9196 330.449C66.0333 330.449 65.5901 331.335 65.5901 333.108C65.5901 335.472 65.2949 335.767 62.931 335.767C60.5671 335.767 60.272 335.472 60.272 333.108C60.272 331.335 59.8288 330.449 58.9424 330.449C57.8646 330.449 57.6129 331.877 57.6129 337.983ZM109.207 337.761L109.465 345.073L112.776 345.348C117.303 345.723 120.544 342.564 120.544 337.777C120.544 332.416 118.617 330.449 113.367 330.449H108.95L109.207 337.761ZM193.225 336.012C193.225 342.99 194.756 345.517 198.986 345.517C203.216 345.517 204.747 342.99 204.747 336.012C204.747 331.083 204.55 330.449 203.015 330.449C201.494 330.449 201.251 331.175 201.021 336.432C200.789 341.736 200.558 342.414 198.986 342.414C197.415 342.414 197.183 341.736 196.951 336.432C196.722 331.175 196.479 330.449 194.957 330.449C193.423 330.449 193.225 331.083 193.225 336.012ZM235.77 338.098V345.747L239.926 345.279C245.021 344.705 246.406 343.027 246.406 337.433C246.406 332.072 244.847 330.449 239.695 330.449H235.77V338.098ZM262.381 331.492C262.391 332.137 263.113 335.457 263.983 338.869C265.368 344.297 265.84 345.106 267.76 345.336C269.826 345.582 270.064 345.152 271.8 338.023C273.552 330.825 273.566 330.449 272.051 330.449C270.378 330.449 269.93 331.386 268.944 336.941C268.22 341.02 267.221 340.278 266.179 334.888C265.664 332.223 264.905 330.808 263.885 330.613C263.046 330.45 262.369 330.847 262.381 331.492ZM279.201 337.983V345.517H284.076C287.818 345.517 288.951 345.208 288.951 344.187C288.951 343.258 288.015 342.858 285.849 342.858C283.13 342.858 282.746 342.583 282.746 340.642C282.746 338.771 283.16 338.426 285.406 338.426C287.178 338.426 288.065 337.983 288.065 337.096C288.065 336.21 287.178 335.767 285.406 335.767C283.338 335.767 282.746 335.373 282.746 333.994C282.746 332.559 283.338 332.221 285.849 332.221C287.555 332.221 288.951 331.822 288.951 331.335C288.951 330.847 286.757 330.449 284.076 330.449H279.201V337.983ZM295.155 337.983C295.155 344.089 295.407 345.517 296.485 345.517C297.365 345.517 297.814 344.636 297.814 342.91C297.814 339.063 299.347 338.795 300.845 342.379C301.566 344.105 302.774 345.517 303.531 345.517C305.147 345.517 305.278 344.325 303.936 341.818C303.236 340.509 303.236 339.74 303.936 339.04C305.233 337.743 305.171 332.842 303.842 331.512C303.257 330.927 301.063 330.449 298.967 330.449H295.155V337.983ZM404.177 336.919C404.177 340.769 404.608 343.82 405.24 344.453C406.758 345.97 411.775 345.768 413.421 344.124C415.378 342.166 415.433 330.449 413.483 330.449C412.457 330.449 412.151 331.612 412.141 335.545C412.125 341.367 411.323 343.168 408.945 342.714C407.543 342.446 407.237 341.448 407.017 336.423C406.819 331.907 406.441 330.449 405.466 330.449C404.456 330.449 404.177 331.849 404.177 336.919ZM436.085 331.335C436.085 331.822 436.883 332.221 437.858 332.221C439.473 332.221 439.631 332.813 439.631 338.869C439.631 344.098 439.907 345.517 440.921 345.517C441.909 345.517 442.273 344.006 442.473 339.091C442.712 333.194 442.897 332.641 444.727 332.381C448.839 331.798 446.52 330.449 441.404 330.449C438.449 330.449 436.085 330.842 436.085 331.335ZM6.92418 334.225C7.12893 335.289 6.65119 335.767 5.38282 335.767C4.11445 335.767 3.54541 335.198 3.54541 333.929C3.54541 331.658 6.47923 331.916 6.92418 334.225ZM22.5293 332.759C24.3463 333.457 24.3419 336.307 22.5222 337.004C20.6724 337.714 19.4998 336.927 19.4998 334.976C19.4998 332.516 20.3241 331.913 22.5293 332.759ZM115.935 333.285C117.311 334.661 117.311 340.418 115.935 341.794C113.543 344.186 112.567 342.954 112.567 337.539C112.567 332.125 113.543 330.893 115.935 333.285ZM133.662 333.285C135.167 334.79 134.988 340.65 133.396 341.971C132.335 342.851 131.798 342.851 130.737 341.971C128.366 340.004 129.428 332.221 132.067 332.221C132.359 332.221 133.077 332.7 133.662 333.285ZM242.354 333.614C245.143 336.403 243.286 342.858 239.695 342.858C238.756 342.858 238.429 341.636 238.429 338.131C238.429 332.03 239.517 330.777 242.354 333.614ZM301.397 333.595C302.337 334.727 302.292 335.215 301.147 336.36C299.538 337.969 297.814 337.254 297.814 334.976C297.814 332.072 299.57 331.395 301.397 333.595ZM351.831 333.489C353.353 335.324 352.639 341.154 350.749 342.325C348.696 343.595 347.482 341.81 347.464 337.495C347.444 333.01 349.709 330.933 351.831 333.489ZM393.889 333.624C394.185 334.395 394.395 336.688 394.357 338.72C394.319 340.752 394.086 341.916 393.84 341.306C393.594 340.698 392.785 340.199 392.043 340.199C391.154 340.199 390.883 340.697 391.25 341.653C391.717 342.87 391.587 342.925 390.459 341.988C387.967 339.92 389.298 332.221 392.147 332.221C392.809 332.221 393.593 332.852 393.889 333.624ZM80.4383 339.183C79.1087 339.72 78.6948 338.647 79.4039 336.498L80.0846 334.437L80.6501 336.653C80.9612 337.872 80.8664 339.01 80.4383 339.183ZM157.551 339.183C156.221 339.72 155.807 338.647 156.517 336.498L157.197 334.437L157.763 336.653C158.074 337.872 157.979 339.01 157.551 339.183ZM217.094 338.647C217.128 339.013 216.516 339.312 215.732 339.312C214.797 339.312 214.493 338.83 214.846 337.91C215.142 337.139 215.412 336.042 215.446 335.473C215.506 334.475 216.967 337.29 217.094 338.647ZM334.142 338.204C334.149 338.814 333.612 339.312 332.949 339.312C332.128 339.312 331.882 338.577 332.181 337.015C332.502 335.337 332.824 335.038 333.374 335.907C333.789 336.561 334.134 337.595 334.142 338.204ZM375.813 337.096C375.813 338.315 375.415 339.312 374.927 339.312C373.937 339.312 373.712 336.391 374.632 335.472C375.609 334.494 375.813 334.776 375.813 337.096ZM427.222 337.592C427.222 338.538 426.679 339.312 426.016 339.312C425.208 339.312 424.948 338.583 425.23 337.107C425.709 334.605 427.222 334.974 427.222 337.592ZM484.822 338.204C484.829 338.814 484.291 339.312 483.628 339.312C482.808 339.312 482.562 338.577 482.861 337.015C483.182 335.337 483.504 335.038 484.054 335.907C484.469 336.561 484.814 337.595 484.822 338.204ZM6.64764 340.642C6.64764 341.603 5.95008 342.524 5.09653 342.689C3.93452 342.913 3.54541 342.398 3.54541 340.642C3.54541 338.885 3.93452 338.371 5.09653 338.594C5.95008 338.759 6.64764 339.68 6.64764 340.642Z" fill="#023047"/>
</svg>
