<svg width="44" height="44" viewBox="0 0 44 44" fill="none" xmlns="http://www.w3.org/2000/svg">
<path fill-rule="evenodd" clip-rule="evenodd" d="M17.5802 0.100915C17.5814 0.179393 18.1797 1.86381 18.91 3.84423C23.2206 15.5328 24.4699 18.9351 24.5801 19.2867C24.6999 19.6695 24.6468 19.6639 22.5253 19.0714C21.3275 18.7368 19.6214 18.361 18.7339 18.2364C16.8448 17.971 13.3717 18.0947 10.6572 18.5239C8.7429 18.8265 3.11476 20.1126 3.22819 20.2216C3.26433 20.2563 4.32348 20.1976 5.5818 20.091C9.48136 19.7609 14.4714 20.2493 17.9668 21.3033C21.3204 22.3144 25.7896 24.9639 27.2556 26.8099C27.816 27.5156 30.4597 34.2714 30.4597 34.9978C30.4597 35.3475 30.289 35.5163 29.6926 35.7569C29.2708 35.9272 28.9247 36.1286 28.9236 36.2049C28.9226 36.2811 31.4739 36.3434 34.5932 36.3434C39.8599 36.3434 41.076 36.2342 39.8323 35.8734C39.2322 35.6993 38.3736 34.8981 37.9601 34.1262C37.6396 33.5281 34.4706 25.371 27.5224 7.26033L24.7597 0.0588145L21.1691 0.00858795C19.1942 -0.0191102 17.5792 0.022437 17.5802 0.100915ZM16.2327 2.11531C16.0741 2.16406 15.3819 2.37604 14.6946 2.58655C11.7694 3.4823 8.57833 5.4197 6.20664 7.73988C0.77268 13.0555 -1.25391 20.5477 0.767104 27.8493C1.30427 29.7896 1.82125 30.9707 3.00998 32.9734C3.80227 34.3083 3.9803 34.4503 4.48113 34.1456C4.69281 34.0169 4.62205 33.8121 4.12718 33.1213C3.08246 31.6629 1.86835 28.8863 1.33733 26.7414C0.890913 24.9384 0.753453 21.6973 1.03799 19.689C1.47019 16.6385 2.9598 13.0284 4.79489 10.5841C5.72503 9.34489 8.15536 7.01141 9.56269 6.00616C10.7866 5.13182 13.6358 3.80582 15.619 3.1876C16.8167 2.81422 17.1895 2.62237 17.109 2.42091C17.05 2.273 17.0017 2.11734 17.0017 2.07487C17.0017 1.97829 16.6128 1.99879 16.2327 2.11531ZM26.8203 2.1419C26.8762 2.69162 27.2507 2.99002 28.3512 3.36191C30.0187 3.92547 32.6295 5.19552 33.8181 6.0213C35.1521 6.94826 37.262 8.90412 38.2417 10.1225C42.2126 15.0603 43.569 22.4101 41.5872 28.2518C41.0437 29.8542 40.1556 31.773 39.4937 32.7755C39.0307 33.4766 38.9783 33.6703 39.1703 33.9689C39.3958 34.3194 39.4051 34.3192 39.7182 33.9503C41.066 32.3631 42.738 28.2223 43.1658 25.4131C43.5199 23.0859 43.2912 19.1007 42.6815 16.9827C41.0183 11.2036 36.9957 6.42698 31.5171 3.72549C30.2184 3.08511 29.444 2.80019 27.0471 2.08133C26.9151 2.04163 26.813 2.06896 26.8203 2.1419ZM9.9647 30.9162C8.65331 33.0698 5.46279 35.6014 3.69922 35.8876C3.29644 35.953 2.96691 36.0823 2.96691 36.175C2.96691 36.2725 5.31168 36.3434 8.54237 36.3434C11.7731 36.3434 14.1178 36.2725 14.1178 36.175C14.1178 36.0823 13.7862 35.9526 13.3807 35.8869C12.3971 35.7274 11.5049 35.1837 11.0519 34.4686C10.5882 33.7362 10.3854 31.9261 10.6311 30.7116C10.7337 30.2038 10.7941 29.7658 10.7653 29.7381C10.7364 29.7104 10.3761 30.2405 9.9647 30.9162ZM7.21118 37.9303C7.80257 38.5382 10.7779 40.4575 12.1816 41.1368C13.5753 41.811 15.9468 42.5234 18.0833 42.9093C20.144 43.2818 24.1842 43.1874 26.4223 42.7147C29.4675 42.0715 32.8706 40.4761 35.4311 38.4913L36.6535 37.5436L36.0521 37.4855C35.5761 37.4395 35.1814 37.6225 34.1568 38.3646C32.4678 39.5877 29.4525 41.0129 27.3075 41.6018C24.3236 42.4209 19.6975 42.5003 16.7527 41.7829C14.0788 41.1315 11.1967 39.8184 9.17413 38.3302C8.32051 37.7022 7.80334 37.4513 7.3623 37.4513H6.74496L7.21118 37.9303Z" fill="#219EBC"/>
</svg>
